M48
INCH
T01C0.020
T02C0.035
T03C0.036
T04C0.044
T05C0.051
T06C0.063
T07C0.250
%
T01
X+032400Y+086260
Y+085430
X+031970Y+085850
X+034330Y+077300
X+035270Y+079890
X+035260Y+083670
X+036610Y+070300
X+038130Y+076980
X+036820Y+079290
X+037830Y+079270
X+036910Y+083660
X+036960Y+085290
X+038530Y+085300
X+036390Y+084750
X+037970
X+041410Y+079640
X+040820Y+079270
X+040450Y+078750
X+039640Y+078420
X+041270Y+084540
X+043490Y+069450
X+043990Y+069890
X+044490Y+070360
X+043140Y+076250
X+042530Y+075970
X+043830Y+079400
X+044310Y+081490
X+045490Y+071340
X+046490Y+072300
X+046990Y+073790
X+047490Y+073320
X+046930Y+076250
X+045770Y+079080
X+046980Y+082310
X+047290Y+081710
X+046580Y+087810
X+049460Y+071450
X+050490Y+074340
X+049540Y+074580
X+048490Y+072440
Y+074220
X+049470Y+077300
X+050510Y+079860
X+048530Y+082360
X+050290Y+081650
X+048730Y+084400
X+050460Y+085350
X+048300Y+084750
X+050450Y+086100
X+052990Y+071450
X+051490Y+073740
X+052070Y+077190
X+051480Y+077670
X+052720Y+078430
X+052460Y+083640
X+052610Y+081780
X+053250Y+081470
X+053270Y+083080
X+051830Y+084560
X+052790Y+088900
X+056110Y+071500
X+054940Y+072340
X+055610Y+076760
X+055480Y+075880
X+055220Y+080700
X+055440Y+079390
X+055110Y+081790
X+054590Y+082170
X+056020Y+085930
X+054490Y+087400
X+059580Y+071340
X+058370
X+059550Y+073900
X+057690Y+074020
X+059290Y+077180
X+059330Y+076160
X+057750Y+075490
X+058590Y+078450
Y+079390
X+059270Y+080410
X+059670Y+079670
X+059000Y+082030
X+058830Y+082780
Y+084560
X+057800Y+084930
X+059260Y+087400
X+061890Y+073900
X+061390Y+073530
X+060580Y+074280
X+061120Y+074670
X+060690Y+077230
X+061300Y+077240
X+061370Y+076680
X+061940Y+076560
X+062150Y+076050
X+061970Y+075520
X+060750Y+080450
X+061300Y+080440
X+062680Y+082480
X+062300Y+084820
X+060800Y+085040
X+060300Y+084610
X+061800Y+085350
X+065620Y+071240
X+064080Y+069520
X+065030Y+069890
X+064400Y+070360
X+063890Y+073420
X+065030Y+073620
X+064400Y+073110
X+063890Y+073990
Y+075690
X+064560Y+079710
X+065610Y+079200
X+065000Y+082130
X+067140Y+070870
X+031450Y+084180
X+034710Y+087060
X+037460Y+084240
X+039360Y+071870
X+041540Y+072240
X+042990Y+068850
X+043990
X+044250Y+087060
X+045990Y+068850
X+046000Y+071780
X+046990Y+068850
X+045960Y+075130
X+050000Y+068850
X+048990
Y+071900
X+049190Y+084100
X+050500Y+083980
X+050460Y+080790
X+049640Y+086740
X+052990Y+068840
X+053490Y+071920
X+051990Y+068850
X+052200Y+078230
X+053280Y+078150
X+051870Y+081210
X+052800Y+084090
X+052490Y+075280
X+052070Y+086980
X+055980Y+068850
X+054980
X+056470Y+083850
X+055210Y+081260
X+055760Y+087050
X+059170Y+071780
X+058740Y+072230
X+057990Y+068850
X+057410Y+078020
X+057720Y+074890
X+059440Y+074970
X+058490Y+087250
X+061970Y+069070
X+062260Y+084120
X+065030Y+074730
X+064400Y+074950
X+066390Y+072280
X+036010Y+076410
X+032880Y+083670
X+033070Y+088420
X+041760Y+070200
X+044990Y+070830
X+042120Y+071640
X+047990Y+072880
X+042120Y+077030
X+042150Y+079500
X+041760Y+078580
X+044880Y+082590
X+048260Y+083010
X+045290Y+084450
X+050990Y+071450
X+053990Y+072600
X+059740Y+077570
X+060230Y+076490
X+057290Y+078990
X+056810Y+079390
X+060180Y+080450
X+057060Y+083420
X+053760Y+083170
X+051280Y+083650
X+057060Y+085300
X+063100Y+070750
X+063080Y+072390
X+066060Y+080220
X+063170Y+078680
X+063050Y+080200
X+065870Y+081760
X+066240Y+083650
Y+082870
X+063290Y+084800
X+066240Y+088010
X+035830Y+084240
X+044990Y+068850
X+047990
X+042120Y+075090
X+038780Y+075280
X+050990Y+068850
X+053990
X+056990
X+060050Y+074710
X+057200Y+081150
X+053840Y+077970
X+057000Y+086910
X+059810Y+086850
X+063100Y+071770
T02
X+047110Y+088430
X+046110
X+047100Y+086560
X+046100
X+038650Y+070270
Y+071270
T03
X+057920Y+088900
X+056350
X+057140
X+062920
X+061350
X+062140
T04
X+044160Y+079040
X+035000
T05
X+058750Y+088900
X+055490
X+063750
X+060490
T06
X+035850Y+079040
X+043310
T07
X+031770Y+077390
X+065230
T00
M30
