M48
INCH
T01C0.020
T02C0.035
T03C0.036
T04C0.044
T05C0.051
T06C0.063
T07C0.250
%
T01
X+032399Y+086259
Y+085429
X+031969Y+085849
X+034329Y+077299
X+035269Y+079889
X+035259Y+083669
X+036609Y+070299
X+038129Y+076979
X+036819Y+079289
X+037829Y+079269
X+036909Y+083659
X+036959Y+085289
X+038529Y+085299
X+036389Y+084749
X+037969
X+041409Y+079639
X+040819Y+079269
X+040449Y+078749
X+039639Y+078419
X+041269Y+084539
X+043489Y+069449
X+043989Y+069889
X+044489Y+070359
X+043139Y+076249
X+042529Y+075969
X+043829Y+079399
X+044309Y+081489
X+045489Y+071339
X+046489Y+072299
X+046989Y+073789
X+047489Y+073319
X+046929Y+076249
X+045769Y+079079
X+046979Y+082309
X+047289Y+081709
X+046579Y+087809
X+049459Y+071449
X+050489Y+074339
X+049539Y+074579
X+048489Y+072439
Y+074219
X+049469Y+077299
X+050509Y+079859
X+048529Y+082359
X+050289Y+081649
X+048729Y+084399
X+050459Y+085349
X+048299Y+084749
X+050449Y+086099
X+052989Y+071449
X+051489Y+073739
X+052069Y+077189
X+051479Y+077669
X+052719Y+078429
X+052459Y+083639
X+052609Y+081779
X+053249Y+081469
X+053269Y+083079
X+051829Y+084559
X+052789Y+088899
X+056109Y+071499
X+054939Y+072339
X+055609Y+076759
X+055479Y+075879
X+055219Y+080699
X+055439Y+079389
X+055109Y+081789
X+054589Y+082169
X+056019Y+085929
X+054489Y+087399
X+059579Y+071339
X+058369
X+059549Y+073899
X+057689Y+074019
X+059289Y+077179
X+059329Y+076159
X+057749Y+075489
X+058589Y+078449
Y+079389
X+059269Y+080409
X+059669Y+079669
X+058999Y+082029
X+058829Y+082779
Y+084559
X+057799Y+084929
X+059259Y+087399
X+061889Y+073899
X+061389Y+073529
X+060579Y+074279
X+061119Y+074669
X+060689Y+077229
X+061299Y+077239
X+061369Y+076679
X+061939Y+076559
X+062149Y+076049
X+061969Y+075519
X+060749Y+080449
X+061299Y+080439
X+062679Y+082479
X+062299Y+084819
X+060799Y+085039
X+060299Y+084609
X+061799Y+085349
X+065619Y+071239
X+064079Y+069519
X+065029Y+069889
X+064399Y+070359
X+063889Y+073419
X+065029Y+073619
X+064399Y+073109
X+063889Y+073989
Y+075689
X+064559Y+079709
X+065609Y+079199
X+064999Y+082129
X+067139Y+070869
X+031449Y+084179
X+034709Y+087059
X+037459Y+084239
X+039359Y+071869
X+041539Y+072239
X+042989Y+068849
X+043989
X+044249Y+087059
X+045989Y+068849
X+045999Y+071779
X+046989Y+068849
X+045959Y+075129
X+049999Y+068849
X+048989
Y+071899
X+049189Y+084099
X+050499Y+083979
X+050459Y+080789
X+049639Y+086739
X+052989Y+068839
X+053489Y+071919
X+051989Y+068849
X+052199Y+078229
X+053279Y+078149
X+051869Y+081209
X+052799Y+084089
X+052489Y+075279
X+052069Y+086979
X+055979Y+068849
X+054979
X+056469Y+083849
X+055209Y+081259
X+055759Y+087049
X+059169Y+071779
X+058739Y+072229
X+057989Y+068849
X+057409Y+078019
X+057719Y+074889
X+059439Y+074969
X+058489Y+087249
X+061969Y+069069
X+062259Y+084119
X+065029Y+074729
X+064399Y+074949
X+066389Y+072279
X+036009Y+076409
X+032879Y+083669
X+033069Y+088419
X+041759Y+070199
X+044989Y+070829
X+042119Y+071639
X+047989Y+072879
X+042119Y+077029
X+042149Y+079499
X+041759Y+078579
X+044879Y+082589
X+048259Y+083009
X+045289Y+084449
X+050989Y+071449
X+053989Y+072599
X+059739Y+077569
X+060229Y+076489
X+057289Y+078989
X+056809Y+079389
X+060179Y+080449
X+057059Y+083419
X+053759Y+083169
X+051279Y+083649
X+057059Y+085299
X+063099Y+070749
X+063079Y+072389
X+066059Y+080219
X+063169Y+078679
X+063049Y+080199
X+065869Y+081759
X+066239Y+083649
Y+082869
X+063289Y+084799
X+066239Y+088009
X+035829Y+084239
X+044989Y+068849
X+047989
X+042119Y+075089
X+038779Y+075279
X+050989Y+068849
X+053989
X+056989
X+060049Y+074709
X+057199Y+081149
X+053839Y+077969
X+056999Y+086909
X+059809Y+086849
X+063099Y+071769
T02
X+047109Y+088429
X+046109
X+047099Y+086559
X+046099
X+038649Y+070269
Y+071269
T03
X+057919Y+088899
X+056349
X+057139
X+062919
X+061349
X+062139
T04
X+044159Y+079039
X+034999
T05
X+058749Y+088899
X+055489
X+063749
X+060489
T06
X+035849Y+079039
X+043309
T07
X+031769Y+077389
X+065229
T00
M30
